# xmcd CD database file
#
# Track frame offsets:
#	150
#	15730
#	27743
#	40195
#	60235
#	75368
#	94615
#	109023
#	123090
#	132095
#	145020
#	157808
#	170118
#	187718
#	201930
#	215910
#	226868
#	241980
#	255880
#
# Disc length: 3589 seconds
#
# Revision: 2
# Processed by: cddbd v1.4PL0 Copyright (c) Steve Scherf et al.
# Submitted via: CDex 1.50Beta7
#
DISCID=eb0e0313
DTITLE=Mickey Baker - The Legendary Mickey Baker
DYEAR=1991
DGENRE=Blues
TTITLE0=Pop Off
TTITLE1=Corrina, Corrina
TTITLE2=Zanzie
TTITLE3=Ouagadougou
TTITLE4=Belzona Blues
TTITLE5=Alexander's Funk Time
TTITLE6=Lord, Have Mercy
TTITLE7=Prelude in C# Minor
TTITLE8=Shadadabah
TTITLE9=Juicy Lucy
TTITLE10=Stack O'Lee
TTITLE11=Wag Your Tail
TTITLE12=In a Quiet Town
TTITLE13=Love in Vain
TTITLE14=Blue Jazz Rock
TTITLE15=Baby, Please Don't Go
TTITLE16=Sophie
TTITLE17=Spoonful
TTITLE18=Got the Blues
EXTD=YEAR: 1991
EXTT0=
EXTT1=
EXTT2=
EXTT3=
EXTT4=
EXTT5=
EXTT6=
EXTT7=
EXTT8=
EXTT9=
EXTT10=
EXTT11=
EXTT12=
EXTT13=
EXTT14=
EXTT15=
EXTT16=
EXTT17=
EXTT18=
PLAYORDER=
